<?xml version="1.0" encoding="utf-8"?>
<!-- Generator: Adobe Illustrator 21.0.2, SVG Export Plug-In . SVG Version: 6.00 Build 0)  -->
<svg version="1.1" id="Layer_1" xmlns="http://www.w3.org/2000/svg" xmlns:xlink="http://www.w3.org/1999/xlink" x="0px" y="0px"
	 viewBox="0 0 406.5 146.3" style="enable-background:new 0 0 406.5 146.3;" xml:space="preserve">
<style type="text/css">
	.st0{fill:#3D44AC;}
	.st1{fill:#FF6C2C;}
</style>
<g>
	<path class="st0" d="M37.4,133.7c0,0.2,0,0.4,0,0.5c0,0.1-0.1,0.2-0.1,0.3c-0.1,0.1-0.2,0.1-0.4,0.1c-0.2,0-0.4,0-0.7,0
		c-0.2,0-0.4,0-0.5,0c-0.1,0-0.3,0-0.3-0.1c-0.1,0-0.1-0.1-0.2-0.1c0-0.1-0.1-0.1-0.1-0.2l-0.6-4.2h-7.2l-2.2,4.1
		c0,0.1-0.1,0.2-0.2,0.2c-0.1,0.1-0.1,0.1-0.2,0.1c-0.1,0-0.2,0.1-0.4,0.1c-0.2,0-0.4,0-0.6,0c-0.3,0-0.5,0-0.6,0
		c-0.2,0-0.3-0.1-0.3-0.1c-0.1-0.1-0.1-0.2-0.1-0.3c0-0.1,0.1-0.3,0.2-0.5l8.9-16c0.1-0.1,0.1-0.2,0.2-0.2c0.1-0.1,0.2-0.1,0.3-0.1
		c0.1,0,0.3-0.1,0.4-0.1c0.2,0,0.4,0,0.7,0c0.3,0,0.5,0,0.7,0c0.2,0,0.3,0,0.4,0.1c0.1,0,0.2,0.1,0.2,0.1c0,0.1,0.1,0.2,0.1,0.2
		L37.4,133.7z M32.9,119.7L32.9,119.7l-4.7,8.6h5.9L32.9,119.7z M50.4,123.3c0-0.1,0-0.2-0.1-0.3c0-0.1-0.1-0.2-0.2-0.3
		c-0.1-0.1-0.3-0.2-0.5-0.4c-0.2-0.1-0.5-0.3-0.8-0.4c-0.3-0.1-0.6-0.2-0.9-0.2c-0.3-0.1-0.7-0.1-1-0.1c-0.9,0-1.6,0.1-2.3,0.4
		c-0.7,0.3-1.3,0.7-1.7,1.1c-0.5,0.5-0.9,1-1.3,1.6c-0.3,0.6-0.6,1.2-0.9,1.9c-0.2,0.6-0.4,1.3-0.5,1.9c-0.1,0.6-0.1,1.2-0.1,1.8
		c0,1.4,0.4,2.5,1.1,3.2c0.7,0.7,1.8,1.1,3.2,1.1c0.4,0,0.9,0,1.3-0.1c0.4-0.1,0.8-0.2,1.1-0.3c0.3-0.1,0.7-0.3,0.9-0.4
		c0.3-0.2,0.4-0.3,0.6-0.4c0.1-0.1,0.2-0.2,0.2-0.4c0.1-0.1,0.1-0.3,0.1-0.4c0-0.2,0.1-0.3,0.1-0.5c0-0.1,0-0.3,0-0.4
		c0-0.1,0-0.2-0.1-0.3c0-0.1-0.1-0.1-0.2-0.1c-0.1,0-0.3,0.1-0.5,0.2c-0.2,0.1-0.4,0.3-0.7,0.5c-0.3,0.2-0.6,0.3-1,0.5
		c-0.4,0.1-0.9,0.2-1.5,0.2c-0.8,0-1.4-0.2-1.8-0.7c-0.4-0.5-0.6-1.2-0.6-2.1c0-0.3,0-0.7,0.1-1.2c0.1-0.5,0.2-0.9,0.3-1.4
		c0.1-0.5,0.3-1,0.5-1.5c0.2-0.5,0.5-0.9,0.8-1.3c0.3-0.4,0.7-0.7,1.1-0.9c0.4-0.2,0.9-0.4,1.5-0.4c0.5,0,0.9,0.1,1.3,0.2
		c0.3,0.1,0.6,0.3,0.8,0.4c0.2,0.2,0.4,0.3,0.5,0.4c0.1,0.1,0.3,0.2,0.4,0.2c0.1,0,0.2,0,0.3-0.1c0.1-0.1,0.2-0.2,0.2-0.4
		c0.1-0.1,0.1-0.3,0.1-0.5C50.4,123.6,50.4,123.5,50.4,123.3 M61.5,123.3c0-0.1,0-0.2-0.1-0.3c0-0.1-0.1-0.2-0.2-0.3
		c-0.1-0.1-0.3-0.2-0.5-0.4c-0.2-0.1-0.5-0.3-0.8-0.4c-0.3-0.1-0.6-0.2-0.9-0.2c-0.3-0.1-0.7-0.1-1-0.1c-0.9,0-1.6,0.1-2.3,0.4
		c-0.7,0.3-1.2,0.7-1.8,1.1c-0.5,0.5-0.9,1-1.3,1.6c-0.3,0.6-0.6,1.2-0.9,1.9c-0.2,0.6-0.4,1.3-0.5,1.9c-0.1,0.6-0.1,1.2-0.1,1.8
		c0,1.4,0.4,2.5,1.1,3.2c0.7,0.7,1.8,1.1,3.2,1.1c0.4,0,0.9,0,1.3-0.1c0.4-0.1,0.8-0.2,1.1-0.3c0.3-0.1,0.7-0.3,0.9-0.4
		c0.3-0.2,0.5-0.3,0.6-0.4c0.1-0.1,0.2-0.2,0.2-0.4c0.1-0.1,0.1-0.3,0.1-0.4c0-0.2,0.1-0.3,0.1-0.5c0-0.1,0-0.3,0-0.4
		c0-0.1,0-0.2-0.1-0.3c0-0.1-0.1-0.1-0.2-0.1c-0.1,0-0.3,0.1-0.5,0.2c-0.2,0.1-0.4,0.3-0.7,0.5c-0.3,0.2-0.6,0.3-1,0.5
		c-0.4,0.1-0.9,0.2-1.5,0.2c-0.8,0-1.4-0.2-1.8-0.7c-0.4-0.5-0.6-1.2-0.6-2.1c0-0.3,0-0.7,0.1-1.2c0.1-0.5,0.1-0.9,0.3-1.4
		c0.1-0.5,0.3-1,0.5-1.5c0.2-0.5,0.5-0.9,0.8-1.3c0.3-0.4,0.7-0.7,1.1-0.9c0.4-0.2,0.9-0.4,1.5-0.4c0.5,0,0.9,0.1,1.3,0.2
		c0.3,0.1,0.6,0.3,0.8,0.4c0.2,0.2,0.4,0.3,0.5,0.4c0.1,0.1,0.3,0.2,0.4,0.2c0.1,0,0.2,0,0.3-0.1c0.1-0.1,0.2-0.2,0.2-0.4
		c0.1-0.1,0.1-0.3,0.1-0.5C61.5,123.6,61.5,123.5,61.5,123.3 M73.6,124.7c0,0.6-0.1,1.2-0.4,1.6c-0.3,0.5-0.7,0.9-1.3,1.2
		c-0.6,0.3-1.4,0.6-2.3,0.8c-0.9,0.2-2.1,0.3-3.4,0.3h-1.4c-0.1,0.3-0.1,0.6-0.1,0.9c0,0.3,0,0.5,0,0.8c0,0.9,0.2,1.6,0.7,2
		c0.4,0.5,1.1,0.7,2.1,0.7c0.6,0,1.1,0,1.5-0.1c0.4-0.1,0.8-0.2,1.2-0.3c0.3-0.1,0.6-0.2,0.8-0.3c0.2-0.1,0.4-0.1,0.4-0.1
		c0.1,0,0.1,0,0.2,0.1c0,0.1,0.1,0.1,0.1,0.2c0,0.1,0,0.2,0,0.3c0,0.1,0,0.3-0.1,0.4c0,0.1-0.1,0.3-0.1,0.4
		c-0.1,0.1-0.1,0.2-0.2,0.3c-0.1,0.1-0.3,0.2-0.6,0.3c-0.3,0.1-0.6,0.2-1,0.3c-0.4,0.1-0.8,0.1-1.2,0.2c-0.4,0.1-0.9,0.1-1.3,0.1
		c-0.8,0-1.5-0.1-2.1-0.3c-0.6-0.2-1.1-0.4-1.5-0.8c-0.4-0.4-0.7-0.8-0.9-1.4c-0.2-0.5-0.3-1.2-0.3-1.9c0-0.6,0.1-1.2,0.2-1.9
		c0.1-0.7,0.3-1.3,0.5-2c0.2-0.7,0.6-1.3,0.9-1.9c0.4-0.6,0.8-1.1,1.4-1.6c0.5-0.5,1.1-0.8,1.8-1.1c0.7-0.3,1.5-0.4,2.3-0.4
		c0.7,0,1.4,0.1,1.9,0.3c0.5,0.2,0.9,0.4,1.3,0.7c0.3,0.3,0.6,0.6,0.7,1C73.5,124,73.6,124.4,73.6,124.7 M71.3,124.9
		c0-0.4-0.2-0.8-0.5-1.1c-0.4-0.3-0.9-0.4-1.5-0.4c-0.6,0-1.1,0.1-1.5,0.3c-0.4,0.2-0.8,0.5-1.2,0.8c-0.3,0.3-0.6,0.7-0.9,1.2
		c-0.2,0.4-0.4,0.9-0.6,1.4h1.4c0.9,0,1.7-0.1,2.3-0.2c0.6-0.1,1.1-0.3,1.5-0.5c0.4-0.2,0.6-0.4,0.8-0.7
		C71.2,125.5,71.3,125.2,71.3,124.9 M80.9,116.5c0-0.1,0-0.1,0-0.2c0-0.1-0.1-0.1-0.1-0.1c-0.1,0-0.2-0.1-0.3-0.1
		c-0.1,0-0.3,0-0.5,0c-0.2,0-0.4,0-0.6,0c-0.1,0-0.3,0-0.4,0.1c-0.1,0-0.2,0.1-0.2,0.1c0,0.1-0.1,0.1-0.1,0.2l-3.5,17.7
		c0,0.1,0,0.1,0,0.2c0,0.1,0.1,0.1,0.1,0.1c0.1,0,0.2,0.1,0.3,0.1c0.1,0,0.3,0,0.5,0c0.2,0,0.4,0,0.5,0c0.1,0,0.3,0,0.4-0.1
		c0.1,0,0.2-0.1,0.2-0.1c0,0,0.1-0.1,0.1-0.2L80.9,116.5z M92.8,124.7c0,0.6-0.1,1.2-0.4,1.6c-0.3,0.5-0.7,0.9-1.3,1.2
		c-0.6,0.3-1.4,0.6-2.3,0.8c-0.9,0.2-2.1,0.3-3.4,0.3H84c-0.1,0.3-0.1,0.6-0.1,0.9c0,0.3,0,0.5,0,0.8c0,0.9,0.2,1.6,0.7,2
		c0.4,0.5,1.1,0.7,2.1,0.7c0.6,0,1.1,0,1.5-0.1c0.5-0.1,0.8-0.2,1.2-0.3c0.3-0.1,0.6-0.2,0.8-0.3c0.2-0.1,0.4-0.1,0.4-0.1
		c0.1,0,0.1,0,0.2,0.1c0,0.1,0.1,0.1,0.1,0.2c0,0.1,0,0.2,0,0.3c0,0.1,0,0.3-0.1,0.4c0,0.1-0.1,0.3-0.1,0.4
		c-0.1,0.1-0.1,0.2-0.2,0.3c-0.1,0.1-0.3,0.2-0.6,0.3c-0.3,0.1-0.6,0.2-1,0.3c-0.4,0.1-0.8,0.1-1.2,0.2c-0.4,0.1-0.9,0.1-1.3,0.1
		c-0.8,0-1.5-0.1-2.1-0.3c-0.6-0.2-1.1-0.4-1.5-0.8c-0.4-0.4-0.7-0.8-0.9-1.4c-0.2-0.5-0.3-1.2-0.3-1.9c0-0.6,0.1-1.2,0.2-1.9
		c0.1-0.7,0.3-1.3,0.5-2c0.2-0.7,0.6-1.3,0.9-1.9c0.4-0.6,0.8-1.1,1.4-1.6c0.5-0.5,1.1-0.8,1.8-1.1c0.7-0.3,1.5-0.4,2.3-0.4
		c0.7,0,1.4,0.1,1.9,0.3c0.5,0.2,0.9,0.4,1.3,0.7c0.3,0.3,0.6,0.6,0.7,1C92.7,124,92.8,124.4,92.8,124.7 M90.6,124.9
		c0-0.4-0.2-0.8-0.5-1.1c-0.4-0.3-0.9-0.4-1.5-0.4c-0.6,0-1.1,0.1-1.5,0.3c-0.4,0.2-0.8,0.5-1.2,0.8c-0.3,0.3-0.6,0.7-0.9,1.2
		c-0.2,0.4-0.4,0.9-0.6,1.4h1.4c0.9,0,1.7-0.1,2.3-0.2c0.6-0.1,1.1-0.3,1.5-0.5c0.4-0.2,0.6-0.4,0.8-0.7
		C90.5,125.5,90.6,125.2,90.6,124.9 M103.5,122.3c0-0.1,0-0.2-0.1-0.3c-0.1-0.1-0.1-0.1-0.2-0.1c-0.1,0-0.2-0.1-0.4-0.1
		c-0.1,0-0.3-0.1-0.4-0.1c-0.2,0-0.3,0-0.5,0c-0.3,0-0.7,0.1-1.1,0.2c-0.4,0.2-0.7,0.4-1,0.6c-0.3,0.2-0.6,0.5-0.9,0.9
		c-0.3,0.3-0.5,0.7-0.7,1l0.4-2.2c0-0.1,0-0.1,0-0.2c0-0.1-0.1-0.1-0.1-0.1c-0.1,0-0.2-0.1-0.3-0.1c-0.1,0-0.3,0-0.5,0
		c-0.2,0-0.3,0-0.5,0c-0.1,0-0.2,0-0.3,0.1c-0.1,0-0.2,0.1-0.2,0.1c0,0.1-0.1,0.1-0.1,0.2l-2.4,12c0,0.1,0,0.1,0,0.2
		c0,0,0.1,0.1,0.1,0.1c0.1,0,0.2,0.1,0.3,0.1c0.1,0,0.3,0,0.5,0c0.2,0,0.4,0,0.5,0c0.1,0,0.3,0,0.3-0.1c0.1,0,0.2-0.1,0.2-0.1
		c0,0,0.1-0.1,0.1-0.2l1-5.3c0.1-0.7,0.4-1.4,0.7-2c0.3-0.6,0.7-1.2,1-1.6c0.4-0.5,0.8-0.8,1.2-1.1c0.4-0.3,0.7-0.4,1-0.4
		c0.2,0,0.3,0,0.5,0c0.1,0,0.2,0.1,0.4,0.1c0.1,0,0.2,0.1,0.3,0.1c0.1,0,0.2,0,0.2,0c0.1,0,0.1,0,0.2-0.1c0.1-0.1,0.1-0.2,0.2-0.3
		c0.1-0.1,0.1-0.3,0.1-0.4c0-0.1,0.1-0.3,0.1-0.4c0-0.1,0-0.3,0-0.4C103.5,122.4,103.5,122.3,103.5,122.3 M113.6,134.2
		c0,0.2-0.1,0.3-0.3,0.3c-0.2,0.1-0.4,0.1-0.8,0.1c-0.2,0-0.3,0-0.4,0c-0.1,0-0.2,0-0.3-0.1c-0.1,0-0.1-0.1-0.1-0.1c0,0,0-0.1,0-0.2
		l0.4-2.3c-0.1,0.3-0.3,0.6-0.6,0.9c-0.3,0.3-0.7,0.6-1.1,0.9c-0.4,0.3-0.9,0.5-1.4,0.7c-0.5,0.2-1,0.3-1.5,0.3
		c-0.7,0-1.3-0.1-1.8-0.4c-0.5-0.2-0.8-0.6-1.1-1c-0.3-0.4-0.5-0.9-0.6-1.4c-0.1-0.5-0.1-1-0.1-1.6c0-0.5,0-1.1,0.1-1.7
		c0.1-0.6,0.2-1.3,0.4-1.9c0.2-0.7,0.5-1.3,0.8-1.9c0.3-0.6,0.7-1.2,1.2-1.7c0.5-0.5,1-0.9,1.6-1.2c0.6-0.3,1.3-0.4,2.1-0.4
		c0.8,0,1.5,0.2,2,0.5c0.6,0.3,1.1,0.8,1.5,1.3l0.3-1.2c0-0.1,0.1-0.2,0.3-0.3c0.2-0.1,0.4-0.1,0.8-0.1c0.2,0,0.3,0,0.4,0
		c0.1,0,0.2,0,0.3,0.1c0.1,0,0.1,0.1,0.1,0.1c0,0.1,0,0.1,0,0.2L113.6,134.2z M113.2,125.4c-0.4-0.6-0.9-1.1-1.3-1.4
		c-0.5-0.3-1-0.5-1.6-0.5c-0.5,0-0.9,0.1-1.3,0.3c-0.4,0.2-0.7,0.5-1,0.9c-0.3,0.4-0.6,0.8-0.8,1.3c-0.2,0.5-0.4,1-0.5,1.5
		c-0.1,0.5-0.2,1-0.3,1.5c-0.1,0.5-0.1,0.9-0.1,1.3c0,0.3,0,0.6,0.1,0.9c0,0.3,0.1,0.6,0.3,0.8c0.1,0.3,0.3,0.5,0.6,0.6
		c0.2,0.2,0.5,0.2,0.9,0.2c0.5,0,1-0.1,1.5-0.4c0.5-0.3,1-0.6,1.4-1.1c0.4-0.5,0.8-1,1.1-1.7c0.3-0.7,0.6-1.4,0.7-2.1L113.2,125.4z
		 M128.8,134.2c0,0.1,0,0.1-0.1,0.2c0,0.1-0.1,0.1-0.2,0.1c-0.1,0-0.2,0.1-0.4,0.1c-0.1,0-0.3,0-0.5,0c-0.2,0-0.4,0-0.5,0
		c-0.1,0-0.2,0-0.3-0.1c-0.1,0-0.1-0.1-0.2-0.1c0,0,0-0.1,0-0.2l2.1-10.5h-6.2l-1.3,6.7c0,0.2-0.1,0.4-0.1,0.6c0,0.2,0,0.4,0,0.6
		c0,0.5,0.1,0.8,0.3,1c0.2,0.2,0.5,0.3,0.9,0.3c0.2,0,0.4,0,0.6-0.1c0.2,0,0.3-0.1,0.5-0.1c0.1,0,0.2-0.1,0.3-0.1
		c0.1,0,0.2-0.1,0.2-0.1c0.1,0,0.1,0,0.2,0.1c0,0.1,0.1,0.1,0.1,0.3c0,0.1,0,0.2,0,0.4c0,0.1-0.1,0.3-0.1,0.4c0,0.1-0.1,0.3-0.1,0.4
		c-0.1,0.1-0.1,0.2-0.2,0.3c-0.1,0.1-0.2,0.1-0.3,0.2c-0.1,0.1-0.3,0.1-0.5,0.2c-0.2,0.1-0.4,0.1-0.6,0.1c-0.2,0-0.4,0-0.6,0
		c-0.5,0-0.9-0.1-1.3-0.2c-0.4-0.1-0.7-0.3-0.9-0.5c-0.2-0.2-0.4-0.5-0.6-0.9c-0.1-0.3-0.2-0.8-0.2-1.2c0-0.1,0-0.2,0-0.4
		c0-0.1,0-0.3,0-0.4c0-0.1,0-0.3,0.1-0.4c0-0.1,0-0.3,0.1-0.4l1.3-6.7h-1.7c-0.1,0-0.2,0-0.2-0.1c-0.1-0.1-0.1-0.2-0.1-0.3
		c0-0.1,0-0.3,0-0.4c0-0.2,0.1-0.3,0.1-0.5c0.1-0.1,0.1-0.3,0.2-0.4c0.1-0.1,0.2-0.1,0.3-0.1h1.7l0.6-2.8c0-0.1,0-0.1,0.1-0.2
		c0.1,0,0.1-0.1,0.2-0.1c0.1,0,0.2-0.1,0.3-0.1c0.1,0,0.3,0,0.5,0c0.2,0,0.4,0,0.5,0c0.1,0,0.2,0,0.3,0.1c0.1,0,0.1,0.1,0.1,0.1
		c0,0.1,0,0.1,0,0.2l-0.6,2.8h7.7c0.3,0,0.4,0.1,0.5,0.2c0.1,0.1,0.1,0.3,0,0.5L128.8,134.2z M132.2,118.2c-0.1,0.2-0.1,0.5-0.2,0.6
		c-0.1,0.2-0.2,0.3-0.3,0.4c-0.1,0.1-0.3,0.2-0.5,0.2c-0.2,0-0.4,0.1-0.7,0.1c-0.3,0-0.5,0-0.6-0.1c-0.2,0-0.3-0.1-0.4-0.2
		c-0.1-0.1-0.1-0.2-0.1-0.4c0-0.2,0-0.4,0.1-0.6c0-0.2,0.1-0.5,0.2-0.6c0.1-0.2,0.2-0.3,0.3-0.4c0.1-0.1,0.3-0.2,0.5-0.2
		c0.2,0,0.4-0.1,0.7-0.1c0.3,0,0.5,0,0.6,0.1c0.2,0,0.3,0.1,0.4,0.2c0.1,0.1,0.1,0.2,0.1,0.4C132.3,117.8,132.3,118,132.2,118.2
		 M144.5,124.9c0-0.4-0.1-0.8-0.2-1.2c-0.1-0.4-0.3-0.7-0.5-1c-0.3-0.3-0.6-0.5-1-0.7c-0.4-0.2-0.9-0.3-1.5-0.3
		c-0.5,0-1.1,0.1-1.6,0.3c-0.5,0.2-1,0.4-1.4,0.7c-0.4,0.3-0.8,0.6-1.1,0.9c-0.3,0.3-0.5,0.7-0.7,1l0.5-2.3c0-0.1,0-0.1,0-0.2
		c0-0.1-0.1-0.1-0.1-0.1c-0.1,0-0.2-0.1-0.3-0.1c-0.1,0-0.3,0-0.5,0c-0.2,0-0.3,0-0.5,0c-0.1,0-0.2,0-0.3,0.1
		c-0.1,0-0.1,0.1-0.2,0.1c0,0.1-0.1,0.1-0.1,0.2l-2.4,12c0,0.1,0,0.1,0,0.2c0,0.1,0.1,0.1,0.1,0.1c0.1,0,0.2,0.1,0.3,0.1
		c0.1,0,0.3,0,0.5,0c0.2,0,0.4,0,0.5,0c0.1,0,0.3,0,0.4-0.1c0.1,0,0.1-0.1,0.2-0.1c0,0,0.1-0.1,0.1-0.2l1.1-5.3
		c0.2-0.8,0.4-1.5,0.7-2.1c0.3-0.6,0.7-1.2,1.1-1.7c0.4-0.5,0.9-0.8,1.4-1.1c0.5-0.3,1-0.4,1.4-0.4c0.5,0,0.9,0.2,1.2,0.5
		c0.2,0.3,0.3,0.8,0.3,1.3c0,0.2,0,0.4,0,0.7c0,0.3-0.1,0.5-0.1,0.8l-1.5,7.4c0,0.1,0,0.1,0,0.2c0,0.1,0.1,0.1,0.1,0.1
		c0.1,0,0.2,0.1,0.3,0.1c0.1,0,0.3,0,0.5,0c0.2,0,0.4,0,0.5,0c0.1,0,0.3,0,0.4-0.1c0.1,0,0.2-0.1,0.2-0.1c0,0,0.1-0.1,0.1-0.2
		l1.5-7.5c0.1-0.3,0.1-0.6,0.1-0.9C144.5,125.5,144.5,125.2,144.5,124.9 M156.6,135.2c-0.1,0.7-0.4,1.3-0.7,1.9
		c-0.3,0.5-0.7,1-1.2,1.3c-0.5,0.4-1.1,0.6-1.7,0.8c-0.7,0.2-1.4,0.3-2.3,0.3c-0.7,0-1.4-0.1-2-0.2c-0.6-0.1-1.1-0.3-1.5-0.5
		c-0.1-0.1-0.2-0.2-0.3-0.3c-0.1-0.1-0.1-0.2-0.1-0.3c0-0.1,0-0.1,0-0.2c0-0.1,0-0.2,0-0.3c0-0.1,0-0.2,0.1-0.3
		c0-0.1,0.1-0.2,0.1-0.3c0.1-0.1,0.1-0.2,0.2-0.2c0.1,0,0.1-0.1,0.2-0.1c0.1,0,0.2,0,0.4,0.1c0.2,0.1,0.4,0.2,0.6,0.3
		c0.3,0.1,0.6,0.2,1,0.3c0.4,0.1,0.9,0.2,1.5,0.2c0.5,0,0.9-0.1,1.3-0.2c0.4-0.1,0.7-0.2,1-0.4c0.3-0.2,0.5-0.4,0.7-0.7
		c0.2-0.3,0.3-0.7,0.4-1.1c0.2-0.8,0.3-1.5,0.5-2c0.1-0.5,0.3-0.9,0.4-1.2c-0.1,0.3-0.4,0.7-0.7,1c-0.3,0.3-0.7,0.6-1.1,0.9
		c-0.4,0.3-0.9,0.5-1.3,0.7c-0.5,0.2-1,0.3-1.5,0.3c-0.7,0-1.2-0.1-1.7-0.3c-0.5-0.2-0.8-0.5-1.1-0.9c-0.3-0.4-0.5-0.8-0.6-1.4
		c-0.1-0.5-0.2-1.1-0.2-1.7c0-0.5,0-1.1,0.1-1.7c0.1-0.6,0.3-1.3,0.5-1.9c0.2-0.7,0.5-1.3,0.8-1.9c0.3-0.6,0.7-1.2,1.2-1.6
		c0.5-0.5,1-0.9,1.6-1.2c0.6-0.3,1.3-0.4,2.1-0.4c0.8,0,1.5,0.2,2,0.5c0.6,0.3,1.1,0.8,1.5,1.3l0.3-1.2c0-0.1,0.1-0.2,0.3-0.3
		c0.2-0.1,0.4-0.1,0.8-0.1c0.2,0,0.3,0,0.4,0c0.1,0,0.2,0,0.3,0.1c0.1,0,0.1,0.1,0.1,0.1c0,0.1,0,0.1,0,0.2L156.6,135.2z
		 M156.3,125.4c-0.4-0.6-0.9-1.1-1.3-1.4c-0.5-0.3-1-0.5-1.6-0.5c-0.5,0-0.9,0.1-1.3,0.3c-0.4,0.2-0.7,0.5-1,0.9
		c-0.3,0.4-0.6,0.8-0.8,1.3c-0.2,0.5-0.4,1-0.5,1.5c-0.1,0.5-0.2,1-0.3,1.5c-0.1,0.5-0.1,0.9-0.1,1.3c0,0.4,0,0.7,0.1,1
		c0.1,0.3,0.2,0.6,0.3,0.8c0.1,0.2,0.3,0.4,0.6,0.5c0.2,0.1,0.5,0.2,0.9,0.2c0.5,0,1-0.1,1.5-0.4c0.5-0.3,0.9-0.6,1.4-1.1
		c0.4-0.5,0.8-1,1.1-1.7c0.3-0.7,0.6-1.4,0.7-2.1L156.3,125.4z M180.1,120.7c0,0.5-0.1,1.1-0.2,1.5c-0.1,0.5-0.4,0.9-0.6,1.3
		c-0.3,0.4-0.6,0.8-1,1.1c-0.4,0.3-0.8,0.6-1.3,0.8c0.4,0.1,0.7,0.2,1,0.4c0.3,0.2,0.6,0.4,0.8,0.7c0.2,0.3,0.4,0.6,0.5,1
		c0.1,0.4,0.2,0.8,0.2,1.3c0,0.5-0.1,0.9-0.2,1.4c-0.1,0.5-0.3,0.9-0.6,1.4c-0.3,0.4-0.6,0.8-0.9,1.2c-0.4,0.4-0.8,0.7-1.3,1
		c-0.5,0.3-1.1,0.5-1.7,0.6c-0.6,0.2-1.3,0.2-2.2,0.2h-4.6c-0.3,0-0.5-0.1-0.7-0.2c-0.1-0.1-0.2-0.4-0.1-0.7l3.1-15.3
		c0.1-0.3,0.2-0.6,0.4-0.7c0.2-0.1,0.5-0.2,0.7-0.2h3.7c0.9,0,1.6,0.1,2.2,0.2c0.6,0.1,1.1,0.4,1.5,0.6c0.4,0.3,0.7,0.6,0.9,1
		C180,119.7,180.1,120.2,180.1,120.7 M177.1,128.9c0-0.7-0.3-1.3-0.8-1.7c-0.5-0.4-1.3-0.6-2.4-0.6H171l-1.2,6.1h3.2
		c0.7,0,1.3-0.1,1.8-0.3c0.5-0.2,0.9-0.5,1.3-0.8c0.3-0.3,0.6-0.7,0.8-1.2C177,129.9,177.1,129.4,177.1,128.9 M177.6,121.1
		c0-0.3-0.1-0.6-0.1-0.8c-0.1-0.2-0.3-0.4-0.5-0.6c-0.2-0.2-0.5-0.3-0.8-0.4c-0.3-0.1-0.8-0.1-1.3-0.1h-2.4l-1.1,5.6h2.6
		c0.7,0,1.3-0.1,1.7-0.3c0.4-0.2,0.8-0.5,1.1-0.9c0.3-0.4,0.5-0.8,0.6-1.2C177.6,121.9,177.6,121.5,177.6,121.1 M194.1,122.3
		c0-0.1,0-0.1,0-0.2c0-0.1-0.1-0.1-0.1-0.1c-0.1,0-0.2-0.1-0.3-0.1c-0.1,0-0.3,0-0.5,0c-0.2,0-0.4,0-0.5,0c-0.1,0-0.3,0-0.4,0.1
		c-0.1,0-0.2,0.1-0.2,0.1c0,0.1-0.1,0.1-0.1,0.2l-1,5.3c-0.2,0.8-0.4,1.5-0.7,2.2c-0.3,0.7-0.7,1.2-1.1,1.7
		c-0.4,0.5-0.9,0.9-1.4,1.1c-0.5,0.3-1,0.4-1.4,0.4c-0.3,0-0.5,0-0.7-0.1c-0.2-0.1-0.3-0.2-0.5-0.4c-0.1-0.2-0.2-0.4-0.2-0.6
		c-0.1-0.2-0.1-0.5-0.1-0.7c0-0.3,0-0.5,0-0.8c0-0.2,0.1-0.5,0.1-0.7l1.5-7.4c0-0.1,0-0.1,0-0.2c0-0.1-0.1-0.1-0.1-0.1
		c-0.1,0-0.2-0.1-0.3-0.1c-0.1,0-0.3,0-0.5,0c-0.2,0-0.4,0-0.5,0c-0.1,0-0.3,0-0.4,0.1c-0.1,0-0.2,0.1-0.2,0.1
		c0,0.1-0.1,0.1-0.1,0.2l-1.5,7.5c-0.1,0.3-0.1,0.6-0.2,0.9c0,0.3-0.1,0.6-0.1,0.9c0,0.5,0.1,0.9,0.2,1.3c0.1,0.4,0.3,0.7,0.5,1
		c0.3,0.3,0.6,0.5,1,0.7c0.4,0.2,0.9,0.2,1.5,0.2c0.5,0,1-0.1,1.5-0.3c0.5-0.2,0.9-0.4,1.4-0.7c0.4-0.3,0.8-0.6,1.1-0.9
		c0.3-0.3,0.5-0.6,0.7-1l-0.4,2.2c0,0.1,0,0.1,0,0.2c0,0.1,0.1,0.1,0.1,0.1c0.1,0,0.2,0.1,0.3,0.1c0.1,0,0.3,0,0.4,0
		c0.2,0,0.3,0,0.5,0c0.1,0,0.2,0,0.3-0.1c0.1,0,0.1-0.1,0.2-0.1c0-0.1,0.1-0.1,0.1-0.2L194.1,122.3z M204.8,122.9
		c0-0.2-0.1-0.3-0.1-0.4c-0.1-0.1-0.2-0.2-0.4-0.3c-0.2-0.1-0.4-0.2-0.7-0.3c-0.3-0.1-0.6-0.1-0.9-0.2c-0.3-0.1-0.6-0.1-1-0.1
		c-0.7,0-1.4,0.1-2,0.3c-0.6,0.2-1.1,0.5-1.5,0.9c-0.4,0.4-0.7,0.8-1,1.3c-0.2,0.5-0.3,1-0.3,1.6c0,0.6,0.1,1,0.4,1.4
		c0.2,0.4,0.5,0.7,0.9,0.9c0.4,0.3,0.7,0.5,1.1,0.7c0.4,0.2,0.8,0.4,1.1,0.6c0.3,0.2,0.6,0.4,0.9,0.6c0.2,0.2,0.3,0.5,0.3,0.9
		c0,0.3-0.1,0.6-0.2,0.8c-0.1,0.3-0.3,0.5-0.5,0.7c-0.2,0.2-0.5,0.4-0.9,0.5c-0.4,0.1-0.8,0.2-1.3,0.2c-0.5,0-1-0.1-1.4-0.2
		c-0.4-0.1-0.7-0.2-0.9-0.4c-0.2-0.1-0.4-0.3-0.6-0.4c-0.2-0.1-0.3-0.2-0.4-0.2c-0.1,0-0.1,0-0.2,0.1c0,0-0.1,0.1-0.1,0.2
		c0,0.1-0.1,0.2-0.1,0.3c0,0.1-0.1,0.2-0.1,0.3c0,0.1,0,0.2-0.1,0.3c0,0.1,0,0.2,0,0.3c0,0.1,0,0.2,0,0.3c0,0.1,0.1,0.1,0.2,0.2
		c0.1,0.1,0.3,0.2,0.5,0.3c0.2,0.1,0.5,0.2,0.8,0.3c0.3,0.1,0.6,0.2,1,0.2c0.4,0.1,0.8,0.1,1.2,0.1c0.8,0,1.5-0.1,2.2-0.3
		c0.6-0.2,1.2-0.5,1.7-0.9c0.5-0.4,0.8-0.8,1-1.4c0.2-0.5,0.4-1.1,0.4-1.7c0-0.6-0.1-1-0.4-1.4c-0.2-0.4-0.5-0.7-0.9-0.9
		c-0.4-0.3-0.7-0.5-1.1-0.7c-0.4-0.2-0.8-0.4-1.1-0.5c-0.4-0.2-0.6-0.4-0.9-0.6c-0.2-0.2-0.4-0.5-0.4-0.9c0-0.3,0.1-0.5,0.2-0.8
		c0.1-0.2,0.3-0.5,0.5-0.7c0.2-0.2,0.5-0.3,0.8-0.5c0.3-0.1,0.6-0.2,1-0.2c0.4,0,0.8,0,1.1,0.1c0.3,0.1,0.5,0.2,0.8,0.3
		c0.2,0.1,0.4,0.2,0.5,0.3c0.1,0.1,0.3,0.1,0.4,0.1c0.1,0,0.2,0,0.2-0.1c0.1-0.1,0.1-0.2,0.2-0.4c0-0.1,0.1-0.3,0.1-0.4
		C204.8,123.1,204.8,123,204.8,122.9 M208.5,134.2c0,0.1,0,0.1-0.1,0.2c0,0.1-0.1,0.1-0.2,0.1c-0.1,0-0.2,0.1-0.4,0.1
		c-0.1,0-0.3,0-0.5,0c-0.2,0-0.4,0-0.5,0c-0.1,0-0.2,0-0.3-0.1c-0.1,0-0.1-0.1-0.1-0.1c0,0,0-0.1,0-0.2l2.4-12c0-0.1,0-0.1,0.1-0.2
		c0-0.1,0.1-0.1,0.2-0.1c0.1,0,0.2-0.1,0.4-0.1c0.1,0,0.3,0,0.5,0c0.2,0,0.4,0,0.5,0c0.1,0,0.2,0,0.3,0.1c0.1,0,0.1,0.1,0.1,0.1
		c0,0.1,0,0.1,0,0.2L208.5,134.2z M212,118.2c0,0.2-0.1,0.5-0.2,0.6c-0.1,0.2-0.2,0.3-0.3,0.4c-0.1,0.1-0.3,0.2-0.5,0.2
		c-0.2,0-0.4,0.1-0.7,0.1c-0.3,0-0.5,0-0.6-0.1c-0.2,0-0.3-0.1-0.4-0.2c-0.1-0.1-0.1-0.2-0.1-0.4c0-0.2,0-0.4,0.1-0.6
		c0.1-0.2,0.1-0.5,0.2-0.6c0.1-0.2,0.2-0.3,0.3-0.4c0.1-0.1,0.3-0.2,0.5-0.2c0.2,0,0.4-0.1,0.7-0.1c0.3,0,0.5,0,0.6,0.1
		c0.2,0,0.3,0.1,0.4,0.2c0.1,0.1,0.1,0.2,0.1,0.4C212.1,117.8,212,118,212,118.2 M224.3,124.9c0-0.4-0.1-0.8-0.2-1.2
		c-0.1-0.4-0.3-0.7-0.5-1c-0.2-0.3-0.6-0.5-1-0.7c-0.4-0.2-0.9-0.3-1.5-0.3c-0.5,0-1.1,0.1-1.6,0.3c-0.5,0.2-1,0.4-1.4,0.7
		c-0.4,0.3-0.8,0.6-1.1,0.9c-0.3,0.3-0.5,0.7-0.7,1l0.5-2.3c0-0.1,0-0.1,0-0.2c0-0.1-0.1-0.1-0.1-0.1c-0.1,0-0.2-0.1-0.3-0.1
		c-0.1,0-0.3,0-0.5,0c-0.2,0-0.3,0-0.5,0c-0.1,0-0.2,0-0.3,0.1c-0.1,0-0.1,0.1-0.2,0.1c0,0.1-0.1,0.1-0.1,0.2l-2.4,12
		c0,0.1,0,0.1,0,0.2c0,0.1,0.1,0.1,0.1,0.1c0.1,0,0.2,0.1,0.3,0.1c0.1,0,0.3,0,0.5,0c0.2,0,0.4,0,0.5,0c0.1,0,0.3,0,0.4-0.1
		c0.1,0,0.2-0.1,0.2-0.1c0,0,0.1-0.1,0.1-0.2l1.1-5.3c0.2-0.8,0.4-1.5,0.7-2.1c0.3-0.6,0.7-1.2,1.1-1.7c0.4-0.5,0.9-0.8,1.4-1.1
		c0.5-0.3,1-0.4,1.4-0.4c0.5,0,0.9,0.2,1.2,0.5c0.2,0.3,0.3,0.8,0.3,1.3c0,0.2,0,0.4,0,0.7c0,0.3-0.1,0.5-0.1,0.8l-1.5,7.4
		c0,0.1,0,0.1,0,0.2c0,0.1,0.1,0.1,0.1,0.1c0.1,0,0.2,0.1,0.3,0.1c0.1,0,0.3,0,0.5,0c0.2,0,0.4,0,0.5,0c0.1,0,0.3,0,0.4-0.1
		c0.1,0,0.2-0.1,0.2-0.1c0,0,0.1-0.1,0.1-0.2l1.5-7.5c0.1-0.3,0.1-0.6,0.1-0.9C224.2,125.5,224.3,125.2,224.3,124.9 M238,124.7
		c0,0.6-0.1,1.2-0.4,1.6s-0.7,0.9-1.3,1.2c-0.6,0.3-1.4,0.6-2.3,0.8c-0.9,0.2-2.1,0.3-3.4,0.3h-1.4c-0.1,0.3-0.1,0.6-0.1,0.9
		c0,0.3,0,0.5,0,0.8c0,0.9,0.2,1.6,0.7,2c0.4,0.5,1.1,0.7,2.1,0.7c0.6,0,1.1,0,1.5-0.1c0.5-0.1,0.8-0.2,1.2-0.3
		c0.3-0.1,0.6-0.2,0.8-0.3c0.2-0.1,0.4-0.1,0.4-0.1c0.1,0,0.1,0,0.2,0.1c0,0.1,0.1,0.1,0.1,0.2c0,0.1,0,0.2,0,0.3
		c0,0.1,0,0.3-0.1,0.4c0,0.1-0.1,0.3-0.1,0.4c-0.1,0.1-0.1,0.2-0.2,0.3c-0.1,0.1-0.3,0.2-0.6,0.3c-0.3,0.1-0.6,0.2-1,0.3
		c-0.4,0.1-0.8,0.1-1.2,0.2c-0.4,0.1-0.9,0.1-1.3,0.1c-0.8,0-1.5-0.1-2.1-0.3c-0.6-0.2-1.1-0.4-1.5-0.8c-0.4-0.4-0.7-0.8-0.9-1.4
		c-0.2-0.5-0.3-1.2-0.3-1.9c0-0.6,0.1-1.2,0.2-1.9c0.1-0.7,0.3-1.3,0.5-2c0.2-0.7,0.5-1.3,0.9-1.9c0.4-0.6,0.8-1.1,1.4-1.6
		c0.5-0.5,1.1-0.8,1.8-1.1c0.7-0.3,1.5-0.4,2.3-0.4c0.7,0,1.4,0.1,1.9,0.3c0.5,0.2,0.9,0.4,1.3,0.7c0.3,0.3,0.6,0.6,0.7,1
		C237.9,124,238,124.4,238,124.7 M235.8,124.9c0-0.4-0.2-0.8-0.5-1.1c-0.4-0.3-0.9-0.4-1.5-0.4c-0.6,0-1.1,0.1-1.5,0.3
		c-0.4,0.2-0.8,0.5-1.2,0.8c-0.3,0.3-0.6,0.7-0.9,1.2c-0.2,0.4-0.4,0.9-0.6,1.4h1.4c0.9,0,1.7-0.1,2.3-0.2c0.6-0.1,1.1-0.3,1.5-0.5
		c0.4-0.2,0.6-0.4,0.8-0.7C235.7,125.5,235.8,125.2,235.8,124.9 M248.6,122.9c0-0.2-0.1-0.3-0.1-0.4c-0.1-0.1-0.2-0.2-0.4-0.3
		c-0.2-0.1-0.4-0.2-0.7-0.3c-0.3-0.1-0.6-0.1-0.9-0.2c-0.3-0.1-0.6-0.1-1-0.1c-0.7,0-1.4,0.1-2,0.3c-0.6,0.2-1.1,0.5-1.5,0.9
		c-0.4,0.4-0.7,0.8-1,1.3c-0.2,0.5-0.3,1-0.3,1.6c0,0.6,0.1,1,0.4,1.4c0.2,0.4,0.5,0.7,0.9,0.9c0.3,0.3,0.7,0.5,1.1,0.7
		c0.4,0.2,0.8,0.4,1.1,0.6c0.4,0.2,0.6,0.4,0.9,0.6c0.2,0.2,0.3,0.5,0.3,0.9c0,0.3-0.1,0.6-0.2,0.8c-0.1,0.3-0.3,0.5-0.5,0.7
		c-0.2,0.2-0.5,0.4-0.9,0.5c-0.4,0.1-0.8,0.2-1.3,0.2c-0.5,0-1-0.1-1.4-0.2c-0.4-0.1-0.7-0.2-0.9-0.4c-0.2-0.1-0.4-0.3-0.6-0.4
		c-0.1-0.1-0.3-0.2-0.4-0.2c-0.1,0-0.1,0-0.2,0.1c0,0-0.1,0.1-0.1,0.2c0,0.1-0.1,0.2-0.1,0.3c0,0.1-0.1,0.2-0.1,0.3
		c0,0.1,0,0.2-0.1,0.3c0,0.1,0,0.2,0,0.3c0,0.1,0,0.2,0,0.3c0,0.1,0.1,0.1,0.2,0.2c0.1,0.1,0.3,0.2,0.5,0.3c0.2,0.1,0.5,0.2,0.8,0.3
		c0.3,0.1,0.6,0.2,1,0.2c0.4,0.1,0.8,0.1,1.2,0.1c0.8,0,1.5-0.1,2.2-0.3c0.6-0.2,1.2-0.5,1.7-0.9c0.5-0.4,0.8-0.8,1-1.4
		c0.2-0.5,0.4-1.1,0.4-1.7c0-0.6-0.1-1-0.4-1.4c-0.2-0.4-0.5-0.7-0.9-0.9c-0.4-0.3-0.7-0.5-1.1-0.7c-0.4-0.2-0.8-0.4-1.1-0.5
		c-0.4-0.2-0.6-0.4-0.9-0.6c-0.2-0.2-0.4-0.5-0.4-0.9c0-0.3,0.1-0.5,0.2-0.8c0.1-0.2,0.3-0.5,0.5-0.7c0.2-0.2,0.5-0.3,0.8-0.5
		c0.3-0.1,0.6-0.2,1-0.2c0.4,0,0.8,0,1.1,0.1c0.3,0.1,0.5,0.2,0.8,0.3c0.2,0.1,0.4,0.2,0.5,0.3c0.1,0.1,0.3,0.1,0.4,0.1
		c0.1,0,0.2,0,0.2-0.1c0.1-0.1,0.1-0.2,0.2-0.4c0-0.1,0.1-0.3,0.1-0.4C248.6,123.1,248.6,123,248.6,122.9 M259.2,122.9
		c0-0.2-0.1-0.3-0.1-0.4c-0.1-0.1-0.2-0.2-0.4-0.3c-0.2-0.1-0.4-0.2-0.7-0.3c-0.3-0.1-0.6-0.1-0.9-0.2c-0.3-0.1-0.6-0.1-1-0.1
		c-0.7,0-1.4,0.1-2,0.3c-0.6,0.2-1.1,0.5-1.5,0.9c-0.4,0.4-0.7,0.8-1,1.3c-0.2,0.5-0.4,1-0.4,1.6c0,0.6,0.1,1,0.4,1.4
		c0.2,0.4,0.5,0.7,0.9,0.9c0.3,0.3,0.7,0.5,1.1,0.7c0.4,0.2,0.8,0.4,1.1,0.6c0.4,0.2,0.6,0.4,0.9,0.6c0.2,0.2,0.3,0.5,0.3,0.9
		c0,0.3-0.1,0.6-0.2,0.8c-0.1,0.3-0.3,0.5-0.5,0.7c-0.2,0.2-0.5,0.4-0.9,0.5c-0.4,0.1-0.8,0.2-1.3,0.2c-0.5,0-1-0.1-1.4-0.2
		c-0.4-0.1-0.7-0.2-0.9-0.4c-0.2-0.1-0.4-0.3-0.6-0.4c-0.2-0.1-0.3-0.2-0.4-0.2c-0.1,0-0.1,0-0.2,0.1c0,0-0.1,0.1-0.1,0.2
		c0,0.1-0.1,0.2-0.1,0.3c0,0.1-0.1,0.2-0.1,0.3c0,0.1,0,0.2-0.1,0.3c0,0.1,0,0.2,0,0.3c0,0.1,0,0.2,0,0.3c0,0.1,0.1,0.1,0.2,0.2
		c0.1,0.1,0.3,0.2,0.5,0.3c0.2,0.1,0.5,0.2,0.8,0.3c0.3,0.1,0.6,0.2,1,0.2c0.4,0.1,0.8,0.1,1.2,0.1c0.8,0,1.5-0.1,2.2-0.3
		c0.6-0.2,1.2-0.5,1.7-0.9c0.5-0.4,0.8-0.8,1-1.4c0.2-0.5,0.4-1.1,0.4-1.7c0-0.6-0.1-1-0.4-1.4c-0.2-0.4-0.5-0.7-0.9-0.9
		c-0.4-0.3-0.7-0.5-1.1-0.7c-0.4-0.2-0.8-0.4-1.1-0.5c-0.4-0.2-0.7-0.4-0.9-0.6c-0.2-0.2-0.3-0.5-0.3-0.9c0-0.3,0-0.5,0.2-0.8
		c0.1-0.2,0.3-0.5,0.5-0.7c0.2-0.2,0.5-0.3,0.8-0.5c0.3-0.1,0.6-0.2,1-0.2c0.4,0,0.8,0,1.1,0.1c0.3,0.1,0.6,0.2,0.8,0.3
		c0.2,0.1,0.4,0.2,0.5,0.3c0.1,0.1,0.3,0.1,0.4,0.1c0.1,0,0.2,0,0.2-0.1c0.1-0.1,0.1-0.2,0.2-0.4c0-0.1,0.1-0.3,0.1-0.4
		C259.2,123.1,259.2,123,259.2,122.9 M283.3,123.1c0,0.7-0.1,1.4-0.2,2.3c-0.1,0.8-0.3,1.7-0.6,2.6c-0.3,0.9-0.7,1.7-1.2,2.5
		c-0.5,0.8-1.1,1.5-1.8,2.2c-0.7,0.6-1.5,1.1-2.5,1.5c-1,0.4-2.1,0.6-3.3,0.6c-1,0-1.9-0.1-2.7-0.4c-0.8-0.2-1.4-0.6-1.9-1.1
		c-0.5-0.5-0.9-1.1-1.1-1.9c-0.3-0.7-0.4-1.6-0.4-2.5c0-0.8,0.1-1.6,0.2-2.5c0.1-0.9,0.4-1.8,0.7-2.6c0.3-0.9,0.7-1.7,1.2-2.5
		c0.5-0.8,1.1-1.5,1.8-2.1c0.7-0.6,1.5-1.1,2.5-1.5c1-0.4,2.1-0.6,3.3-0.6c1,0,1.9,0.1,2.6,0.4c0.8,0.3,1.4,0.6,1.9,1.2
		c0.5,0.5,0.9,1.1,1.1,1.9C283.1,121.3,283.3,122.2,283.3,123.1 M280.8,123.3c0-0.6-0.1-1.2-0.2-1.7c-0.1-0.5-0.4-1-0.7-1.3
		c-0.3-0.4-0.7-0.7-1.2-0.9c-0.5-0.2-1.1-0.3-1.9-0.3c-0.9,0-1.7,0.2-2.4,0.5c-0.7,0.3-1.3,0.8-1.8,1.3c-0.5,0.5-0.9,1.2-1.3,1.9
		c-0.3,0.7-0.6,1.4-0.8,2.1c-0.2,0.7-0.3,1.4-0.4,2.1c-0.1,0.7-0.1,1.2-0.1,1.7c0,0.6,0.1,1.2,0.2,1.7c0.1,0.5,0.4,0.9,0.7,1.3
		c0.3,0.4,0.7,0.6,1.2,0.8c0.5,0.2,1.1,0.3,1.9,0.3c0.9,0,1.7-0.2,2.4-0.5c0.7-0.3,1.3-0.8,1.8-1.3c0.5-0.5,0.9-1.2,1.3-1.8
		c0.3-0.7,0.6-1.4,0.8-2.1c0.2-0.7,0.3-1.4,0.4-2.1C280.8,124.4,280.8,123.8,280.8,123.3 M297,122.3c0-0.1,0-0.1,0-0.2
		c0-0.1-0.1-0.1-0.1-0.1c-0.1,0-0.2-0.1-0.3-0.1c-0.1,0-0.3,0-0.5,0c-0.2,0-0.4,0-0.5,0c-0.1,0-0.3,0-0.4,0.1
		c-0.1,0-0.2,0.1-0.2,0.1c-0.1,0.1-0.1,0.1-0.1,0.2l-1.1,5.3c-0.2,0.8-0.4,1.5-0.7,2.2c-0.3,0.7-0.7,1.2-1.1,1.7
		c-0.4,0.5-0.9,0.9-1.4,1.1c-0.5,0.3-1,0.4-1.4,0.4c-0.3,0-0.5,0-0.7-0.1c-0.2-0.1-0.3-0.2-0.5-0.4c-0.1-0.2-0.2-0.4-0.2-0.6
		c-0.1-0.2-0.1-0.5-0.1-0.7c0-0.3,0-0.5,0-0.8c0-0.2,0.1-0.5,0.1-0.7l1.5-7.4c0-0.1,0-0.1,0-0.2c0-0.1-0.1-0.1-0.1-0.1
		c-0.1,0-0.2-0.1-0.3-0.1c-0.1,0-0.3,0-0.5,0c-0.2,0-0.4,0-0.5,0c-0.1,0-0.3,0-0.4,0.1c-0.1,0-0.2,0.1-0.2,0.1
		c0,0.1-0.1,0.1-0.1,0.2l-1.5,7.5c-0.1,0.3-0.1,0.6-0.2,0.9c0,0.3-0.1,0.6-0.1,0.9c0,0.5,0.1,0.9,0.2,1.3c0.1,0.4,0.3,0.7,0.5,1
		c0.2,0.3,0.6,0.5,1,0.7c0.4,0.2,0.9,0.2,1.5,0.2c0.5,0,1-0.1,1.5-0.3c0.5-0.2,0.9-0.4,1.4-0.7c0.4-0.3,0.8-0.6,1.1-0.9
		c0.3-0.3,0.5-0.6,0.7-1l-0.4,2.2c0,0.1,0,0.1,0,0.2c0,0.1,0.1,0.1,0.1,0.1c0.1,0,0.2,0.1,0.3,0.1c0.1,0,0.3,0,0.4,0
		c0.2,0,0.3,0,0.5,0c0.1,0,0.2,0,0.3-0.1c0.1,0,0.1-0.1,0.2-0.1c0-0.1,0.1-0.1,0.1-0.2L297,122.3z M307.2,122.4c0-0.1,0-0.2-0.1-0.3
		c0-0.1-0.1-0.1-0.3-0.1h-3.1l0.6-2.8c0-0.1,0-0.1,0-0.2c0-0.1-0.1-0.1-0.1-0.1c-0.1,0-0.2-0.1-0.3-0.1c-0.1,0-0.3,0-0.5,0
		c-0.2,0-0.4,0-0.5,0c-0.1,0-0.3,0-0.4,0.1c-0.1,0-0.2,0.1-0.2,0.1c0,0.1-0.1,0.1-0.1,0.2l-0.6,2.8H300c-0.1,0-0.2,0-0.3,0.1
		c-0.1,0.1-0.2,0.2-0.2,0.4c-0.1,0.1-0.1,0.3-0.1,0.5c0,0.2,0,0.3,0,0.4c0,0.2,0,0.3,0.1,0.3c0.1,0.1,0.1,0.1,0.2,0.1h1.7l-1.3,6.7
		c0,0.1-0.1,0.3-0.1,0.4c0,0.1,0,0.3-0.1,0.4c0,0.1,0,0.3,0,0.4c0,0.1,0,0.2,0,0.4c0,0.5,0.1,0.9,0.2,1.2c0.1,0.3,0.3,0.6,0.5,0.9
		c0.2,0.2,0.6,0.4,0.9,0.5c0.4,0.1,0.8,0.2,1.3,0.2c0.2,0,0.4,0,0.6,0c0.2,0,0.4-0.1,0.6-0.1c0.2-0.1,0.4-0.1,0.5-0.2
		c0.1-0.1,0.2-0.1,0.3-0.2c0.1-0.1,0.1-0.1,0.2-0.2c0.1-0.1,0.1-0.2,0.1-0.4c0-0.1,0.1-0.3,0.1-0.4c0-0.1,0-0.3,0-0.4
		c0-0.1,0-0.2-0.1-0.3c0,0-0.1-0.1-0.2-0.1c-0.1,0-0.1,0-0.2,0.1c-0.1,0-0.2,0.1-0.3,0.1c-0.1,0-0.3,0.1-0.5,0.1
		c-0.2,0-0.4,0.1-0.6,0.1c-0.4,0-0.7-0.1-0.9-0.3c-0.2-0.2-0.3-0.5-0.3-1c0-0.2,0-0.3,0-0.6c0-0.2,0.1-0.4,0.1-0.6l1.3-6.7h3.1
		c0.1,0,0.1,0,0.2-0.1c0.1,0,0.1-0.1,0.2-0.2c0.1-0.1,0.1-0.2,0.1-0.3c0-0.1,0.1-0.2,0.1-0.3c0-0.1,0-0.2,0.1-0.3
		C307.2,122.6,307.2,122.5,307.2,122.4 M318,123.3c0-0.1,0-0.2,0-0.3c0-0.1-0.1-0.2-0.2-0.3c-0.1-0.1-0.3-0.2-0.5-0.4
		c-0.2-0.1-0.5-0.3-0.8-0.4c-0.3-0.1-0.6-0.2-0.9-0.2c-0.3-0.1-0.7-0.1-1-0.1c-0.9,0-1.6,0.1-2.3,0.4c-0.7,0.3-1.2,0.7-1.7,1.1
		c-0.5,0.5-0.9,1-1.3,1.6c-0.3,0.6-0.6,1.2-0.9,1.9c-0.2,0.6-0.4,1.3-0.5,1.9c-0.1,0.6-0.1,1.2-0.1,1.8c0,1.4,0.4,2.5,1.1,3.2
		c0.7,0.7,1.8,1.1,3.2,1.1c0.4,0,0.9,0,1.3-0.1c0.4-0.1,0.8-0.2,1.1-0.3c0.3-0.1,0.7-0.3,0.9-0.4c0.3-0.2,0.4-0.3,0.6-0.4
		c0.1-0.1,0.2-0.2,0.2-0.4c0.1-0.1,0.1-0.3,0.1-0.4c0-0.2,0.1-0.3,0.1-0.5c0-0.1,0-0.3,0-0.4c0-0.1,0-0.2-0.1-0.3
		c0-0.1-0.1-0.1-0.2-0.1c-0.1,0-0.3,0.1-0.5,0.2c-0.2,0.1-0.4,0.3-0.7,0.5c-0.3,0.2-0.6,0.3-1,0.5c-0.4,0.1-0.9,0.2-1.5,0.2
		c-0.8,0-1.4-0.2-1.8-0.7c-0.4-0.5-0.6-1.2-0.6-2.1c0-0.3,0-0.7,0.1-1.2c0.1-0.5,0.2-0.9,0.3-1.4c0.1-0.5,0.3-1,0.5-1.5
		c0.2-0.5,0.5-0.9,0.8-1.3c0.3-0.4,0.7-0.7,1.1-0.9c0.4-0.2,0.9-0.4,1.5-0.4c0.5,0,0.9,0.1,1.3,0.2c0.3,0.1,0.6,0.3,0.8,0.4
		c0.2,0.2,0.4,0.3,0.5,0.4c0.1,0.1,0.3,0.2,0.4,0.2c0.1,0,0.2,0,0.3-0.1c0.1-0.1,0.2-0.2,0.2-0.4c0.1-0.1,0.1-0.3,0.1-0.5
		C318,123.6,318,123.5,318,123.3 M330.7,126.2c0,0.7-0.1,1.3-0.2,2c-0.1,0.7-0.3,1.3-0.6,2c-0.2,0.6-0.6,1.2-1,1.8
		c-0.4,0.6-0.8,1-1.4,1.5c-0.5,0.4-1.1,0.7-1.8,1c-0.7,0.2-1.4,0.4-2.2,0.4c-0.8,0-1.6-0.1-2.2-0.3c-0.6-0.2-1.1-0.5-1.5-0.9
		c-0.4-0.4-0.7-0.9-0.9-1.4c-0.2-0.6-0.3-1.2-0.3-1.9c0-0.7,0.1-1.3,0.2-2c0.1-0.7,0.3-1.3,0.6-2c0.3-0.6,0.6-1.2,1-1.8
		c0.4-0.6,0.8-1.1,1.4-1.5c0.5-0.4,1.1-0.7,1.8-1c0.7-0.2,1.4-0.4,2.2-0.4c0.9,0,1.6,0.1,2.2,0.3c0.6,0.2,1.1,0.5,1.5,0.9
		c0.4,0.4,0.7,0.9,0.9,1.4C330.6,124.9,330.7,125.5,330.7,126.2 M328.4,126.4c0-0.4,0-0.8-0.1-1.2c-0.1-0.4-0.2-0.7-0.5-0.9
		c-0.2-0.2-0.5-0.4-0.9-0.6c-0.4-0.1-0.8-0.2-1.3-0.2c-0.5,0-1,0.1-1.4,0.3c-0.4,0.2-0.8,0.4-1.2,0.8c-0.3,0.3-0.6,0.7-0.9,1.1
		c-0.2,0.4-0.5,0.9-0.6,1.4c-0.2,0.5-0.3,1-0.4,1.5c-0.1,0.5-0.1,1-0.1,1.5c0,0.4,0,0.8,0.1,1.2c0.1,0.4,0.3,0.7,0.5,0.9
		c0.2,0.2,0.5,0.4,0.8,0.6c0.3,0.1,0.8,0.2,1.3,0.2c0.5,0,1-0.1,1.5-0.3c0.4-0.2,0.8-0.5,1.2-0.8c0.3-0.3,0.6-0.7,0.9-1.1
		c0.3-0.4,0.5-0.9,0.6-1.4c0.2-0.5,0.3-1,0.4-1.5C328.4,127.4,328.4,126.9,328.4,126.4 M351.6,126.8c0.1-0.3,0.1-0.6,0.1-0.9
		c0-0.3,0.1-0.6,0.1-0.9c0-0.5-0.1-0.9-0.2-1.3c-0.1-0.4-0.3-0.7-0.5-1c-0.2-0.3-0.6-0.5-1-0.7c-0.4-0.2-0.9-0.3-1.5-0.3
		c-0.5,0-1,0.1-1.5,0.3c-0.5,0.2-0.9,0.4-1.3,0.7c-0.4,0.3-0.8,0.6-1.1,0.9c-0.3,0.3-0.6,0.7-0.7,1c0-0.4-0.1-0.8-0.2-1.2
		c-0.1-0.3-0.3-0.6-0.5-0.9c-0.2-0.3-0.6-0.4-0.9-0.6c-0.4-0.1-0.8-0.2-1.4-0.2c-0.5,0-1,0.1-1.5,0.3c-0.5,0.2-0.9,0.4-1.3,0.7
		c-0.4,0.3-0.8,0.6-1.1,0.9c-0.3,0.3-0.5,0.7-0.7,1l0.5-2.3c0-0.1,0-0.1,0-0.2c0-0.1-0.1-0.1-0.1-0.1c-0.1,0-0.2-0.1-0.3-0.1
		c-0.1,0-0.3,0-0.5,0c-0.2,0-0.3,0-0.5,0c-0.1,0-0.2,0-0.3,0.1c-0.1,0-0.1,0.1-0.2,0.1c0,0.1-0.1,0.1-0.1,0.2l-2.4,12
		c0,0.1,0,0.1,0,0.2c0,0.1,0.1,0.1,0.1,0.1c0.1,0,0.2,0.1,0.3,0.1c0.1,0,0.3,0,0.5,0c0.2,0,0.4,0,0.5,0c0.1,0,0.3,0,0.4-0.1
		c0.1,0,0.2-0.1,0.2-0.1c0,0,0.1-0.1,0.1-0.2l1.1-5.3c0.1-0.8,0.4-1.5,0.7-2.1c0.3-0.7,0.7-1.2,1.1-1.7c0.4-0.5,0.9-0.8,1.3-1.1
		c0.5-0.3,0.9-0.4,1.4-0.4c0.5,0,0.9,0.2,1.1,0.5c0.2,0.3,0.3,0.8,0.3,1.3c0,0.2,0,0.5,0,0.7c0,0.3-0.1,0.5-0.1,0.8l-1.5,7.4
		c0,0.1,0,0.1,0,0.2c0,0.1,0.1,0.1,0.1,0.1c0.1,0,0.2,0.1,0.3,0.1c0.1,0,0.3,0,0.5,0c0.2,0,0.4,0,0.5,0c0.1,0,0.3,0,0.4-0.1
		c0.1,0,0.2-0.1,0.2-0.1c0,0,0.1-0.1,0.1-0.2l1.1-5.3c0.1-0.8,0.4-1.5,0.7-2.1c0.3-0.7,0.7-1.2,1.1-1.7c0.4-0.5,0.9-0.8,1.3-1.1
		c0.5-0.3,0.9-0.4,1.4-0.4c0.5,0,0.9,0.2,1.1,0.5c0.2,0.3,0.3,0.8,0.3,1.4c0,0.2,0,0.5,0,0.7c0,0.2-0.1,0.5-0.1,0.7l-1.5,7.4
		c0,0.1,0,0.1,0,0.2c0,0.1,0.1,0.1,0.2,0.1c0.1,0,0.2,0.1,0.3,0.1c0.1,0,0.3,0,0.5,0c0.2,0,0.4,0,0.5,0c0.1,0,0.3,0,0.4-0.1
		c0.1,0,0.2-0.1,0.2-0.1c0,0,0.1-0.1,0.1-0.2L351.6,126.8z M365.5,124.7c0,0.6-0.1,1.2-0.4,1.6c-0.3,0.5-0.7,0.9-1.3,1.2
		c-0.6,0.3-1.4,0.6-2.3,0.8c-0.9,0.2-2.1,0.3-3.4,0.3h-1.4c-0.1,0.3-0.1,0.6-0.1,0.9c0,0.3,0,0.5,0,0.8c0,0.9,0.2,1.6,0.7,2
		c0.4,0.5,1.2,0.7,2.1,0.7c0.6,0,1.1,0,1.5-0.1c0.5-0.1,0.8-0.2,1.2-0.3c0.3-0.1,0.6-0.2,0.8-0.3c0.2-0.1,0.4-0.1,0.4-0.1
		c0.1,0,0.1,0,0.2,0.1c0,0.1,0.1,0.1,0.1,0.2c0,0.1,0,0.2,0,0.3c0,0.1,0,0.3-0.1,0.4c0,0.1-0.1,0.3-0.1,0.4
		c-0.1,0.1-0.1,0.2-0.2,0.3c-0.1,0.1-0.3,0.2-0.6,0.3c-0.3,0.1-0.6,0.2-1,0.3c-0.4,0.1-0.8,0.1-1.2,0.2c-0.4,0.1-0.9,0.1-1.3,0.1
		c-0.8,0-1.5-0.1-2.1-0.3c-0.6-0.2-1.1-0.4-1.5-0.8c-0.4-0.4-0.7-0.8-0.9-1.4c-0.2-0.5-0.3-1.2-0.3-1.9c0-0.6,0.1-1.2,0.2-1.9
		c0.1-0.7,0.3-1.3,0.5-2c0.2-0.7,0.6-1.3,0.9-1.9c0.4-0.6,0.8-1.1,1.4-1.6c0.5-0.5,1.1-0.8,1.8-1.1c0.7-0.3,1.5-0.4,2.3-0.4
		c0.7,0,1.4,0.1,1.9,0.3c0.5,0.2,0.9,0.4,1.3,0.7c0.3,0.3,0.6,0.6,0.7,1C365.4,124,365.5,124.4,365.5,124.7 M363.3,124.9
		c0-0.4-0.2-0.8-0.5-1.1c-0.4-0.3-0.9-0.4-1.5-0.4c-0.6,0-1.1,0.1-1.5,0.3c-0.4,0.2-0.8,0.5-1.2,0.8c-0.3,0.3-0.6,0.7-0.9,1.2
		c-0.2,0.4-0.4,0.9-0.6,1.4h1.4c0.9,0,1.7-0.1,2.3-0.2c0.6-0.1,1.1-0.3,1.5-0.5c0.4-0.2,0.6-0.4,0.8-0.7
		C363.2,125.5,363.3,125.2,363.3,124.9 M376.1,122.9c0-0.2-0.1-0.3-0.1-0.4c-0.1-0.1-0.2-0.2-0.4-0.3c-0.2-0.1-0.4-0.2-0.7-0.3
		c-0.3-0.1-0.6-0.1-0.9-0.2c-0.3-0.1-0.6-0.1-1-0.1c-0.7,0-1.4,0.1-2,0.3c-0.6,0.2-1.1,0.5-1.5,0.9c-0.4,0.4-0.7,0.8-1,1.3
		c-0.2,0.5-0.3,1-0.3,1.6c0,0.6,0.1,1,0.4,1.4c0.2,0.4,0.5,0.7,0.9,0.9c0.4,0.3,0.7,0.5,1.1,0.7c0.4,0.2,0.8,0.4,1.1,0.6
		c0.3,0.2,0.6,0.4,0.9,0.6c0.2,0.2,0.4,0.5,0.4,0.9c0,0.3-0.1,0.6-0.2,0.8c-0.1,0.3-0.3,0.5-0.5,0.7c-0.2,0.2-0.5,0.4-0.9,0.5
		c-0.3,0.1-0.8,0.2-1.3,0.2c-0.5,0-1-0.1-1.4-0.2c-0.4-0.1-0.7-0.2-0.9-0.4c-0.2-0.1-0.4-0.3-0.6-0.4c-0.1-0.1-0.3-0.2-0.4-0.2
		c0,0-0.1,0-0.1,0.1c-0.1,0-0.1,0.1-0.1,0.2c0,0.1-0.1,0.2-0.1,0.3c0,0.1-0.1,0.2-0.1,0.3c0,0.1,0,0.2-0.1,0.3c0,0.1,0,0.2,0,0.3
		c0,0.1,0,0.2,0,0.3c0,0.1,0.1,0.1,0.2,0.2c0.1,0.1,0.3,0.2,0.5,0.3c0.2,0.1,0.5,0.2,0.8,0.3c0.3,0.1,0.6,0.2,1,0.2
		c0.4,0.1,0.8,0.1,1.2,0.1c0.8,0,1.5-0.1,2.2-0.3c0.6-0.2,1.2-0.5,1.6-0.9c0.5-0.4,0.8-0.8,1-1.4c0.2-0.5,0.4-1.1,0.4-1.7
		c0-0.6-0.1-1-0.4-1.4c-0.2-0.4-0.5-0.7-0.9-0.9c-0.4-0.3-0.7-0.5-1.1-0.7c-0.4-0.2-0.8-0.4-1.2-0.5c-0.4-0.2-0.6-0.4-0.9-0.6
		c-0.2-0.2-0.4-0.5-0.4-0.9c0-0.3,0.1-0.5,0.2-0.8c0.1-0.2,0.3-0.5,0.5-0.7c0.2-0.2,0.5-0.3,0.8-0.5c0.3-0.1,0.6-0.2,1-0.2
		c0.4,0,0.8,0,1.1,0.1c0.3,0.1,0.6,0.2,0.8,0.3c0.2,0.1,0.4,0.2,0.5,0.3c0.1,0.1,0.3,0.1,0.4,0.1c0.1,0,0.2,0,0.2-0.1
		c0.1-0.1,0.1-0.2,0.2-0.4c0-0.1,0.1-0.3,0.1-0.4C376.1,123.1,376.1,123,376.1,122.9"/>
	<circle class="st1" cx="83.2" cy="14.4" r="7.4"/>
	<path class="st0" d="M20.4,26.8l19.2,54.3l19.2-54.3h13L45.9,98.7H33.4L7.7,26.8H20.4z M89.6,26.8H77.1v71.9h12.5V26.8z M97,26.8
		v71.9h12.5V50.1c0.2-4,1.8-7.2,4.6-9.5c2.9-2.3,6.8-3.4,11.6-3.4c3.3,0,6.7,0.8,10.2,2.4l7.3-9.7c-2.6-1.5-5.3-2.5-8.3-3.2
		c-2.9-0.7-5.5-1-7.7-1c-4,0-7.5,0.5-10.4,1.5c-2.9,1-5.4,2.8-7.3,5.4v-5.7H97z M156.3,26.8h-7.9v11.6h7.9v39.1
		c0,6.6,1.9,11.8,5.6,15.5c3.8,3.7,9,5.6,15.7,5.6h12.2V87.1h-12.2c-3.3,0-5.6-0.9-6.9-2.8c-1.3-1.9-1.9-4.1-1.9-6.7V38.5h20V26.8
		h-20V6.9h-12.5V26.8z M252.4,98.8V26.8h-12.5v48.6c-0.1,4-1.6,7.2-4.6,9.4c-2.9,2.3-6.8,3.4-11.5,3.4c-4.9,0-8.9-1.2-11.8-3.6
		c-2.9-2.4-4.4-5.7-4.4-10V26.8H195v47.9c0,7.8,2.4,13.9,7.3,18.5c4.9,4.5,11.5,6.8,19.9,6.8c3,0,6.1-0.6,9.4-1.8
		c3.3-1.2,6-2.9,8.2-5.3v5.9H252.4z M255.9,78.7c1.4,6.7,4.8,11.9,10.2,15.6c5.4,3.7,11.9,5.6,19.5,5.6c8.9,0,15.9-1.9,21.2-5.8
		c5.3-3.9,8-9.2,8-16c0-6.8-2.1-11.9-6.4-15.4c-4.3-3.4-11.7-5.7-22.3-6.6c-4.2-0.4-7.9-1.3-11.1-2.7c-3.2-1.4-4.8-3.7-4.8-6.7
		c0-3.1,1.4-5.4,4.1-6.9c2.7-1.6,6.5-2.4,11.3-2.4c4,0,7.4,1,10.3,2.9c2.8,1.9,4.7,4.7,5.5,8.2l12.5-1.5c-1.3-6.7-4.5-11.9-9.4-15.7
		c-4.9-3.7-11.2-5.6-18.8-5.6c-8.4,0-15.2,1.8-20.2,5.5c-5,3.6-7.6,8.8-7.8,15.5c0,6.8,2.5,11.8,7.6,15c5.1,3.2,11.7,5.2,19.7,6.1
		c6.9,0.9,11.5,2,13.8,3.4c2.3,1.4,3.5,3.7,3.5,6.9c0,3.2-1.5,5.8-4.5,7.5c-3,1.8-7.1,2.7-12.2,2.7c-4.1,0-7.8-1-11-2.9
		c-3.2-1.9-5.3-4.6-6.2-8.2L255.9,78.7z M331.6,48.4c0.8-3.6,2.6-6.3,5.5-8.2c2.8-1.9,6.3-2.9,10.4-2.9c4.9,0,8.9,1.2,11.7,3.6
		c2.9,2.4,4.3,5.7,4.3,10v6.5c-2.1-1.7-4.5-3-7.3-3.8c-2.8-0.9-5.7-1.3-8.8-1.3c-8.8,0-15.8,2.1-21,6.4c-5.2,4.2-7.8,10.1-7.8,17.5
		c0,7.4,2.6,13.2,7.8,17.5c5.2,4.3,12.2,6.4,21,6.4c3,0,6-0.5,9-1.4c3-0.9,5.4-2.3,7.1-4.2v4.4h12.5V50.9c0-7.8-2.6-13.9-7.8-18.4
		c-5.2-4.5-12.1-6.8-20.8-6.8c-7.7,0-14.1,1.9-19,5.6c-4.9,3.7-8.1,9-9.4,15.7L331.6,48.4z M363.6,76c0,3.8-1.5,6.7-4.3,9
		c-2.9,2.2-6.8,3.3-11.8,3.3c-4.9,0-8.9-1.1-11.8-3.3c-2.9-2.2-4.4-5.2-4.4-9c0-3.8,1.5-6.7,4.4-8.9c2.9-2.2,6.9-3.3,11.8-3.3
		c4.7,0,8.6,1,11.4,3.1C361.8,69,363.4,72,363.6,76"/>
	<path class="st0" d="M398.8,34.5c0,2.1-0.8,3.9-2.3,5.4c-1.5,1.5-3.3,2.3-5.4,2.3c-2.1,0-3.9-0.8-5.4-2.3c-1.5-1.5-2.3-3.3-2.3-5.4
		c0-2.1,0.8-3.9,2.3-5.4c1.5-1.5,3.3-2.3,5.4-2.3c2.1,0,3.9,0.8,5.4,2.3C398,30.6,398.8,32.4,398.8,34.5z M397.7,34.5
		c0-1.8-0.6-3.4-1.9-4.7c-1.3-1.3-2.8-1.9-4.7-1.9c-1.8,0-3.4,0.6-4.7,1.9c-1.3,1.3-1.9,2.8-1.9,4.7c0,1.8,0.6,3.4,1.9,4.7
		c1.3,1.3,2.8,1.9,4.7,1.9c1.8,0,3.4-0.6,4.7-1.9C397,37.9,397.7,36.3,397.7,34.5z M394.7,39h-1.5l-1.7-3.8h-2.5V39h-1.3v-8.9h3.8
		c1,0,1.8,0.3,2.3,0.8c0.5,0.5,0.8,1.1,0.8,1.7c0,0.5-0.1,0.9-0.4,1.4c-0.3,0.4-0.7,0.7-1.3,0.9L394.7,39z M389.1,34.1h2.3
		c0.6,0,1.1-0.2,1.4-0.5c0.3-0.3,0.4-0.7,0.4-1.1c0-0.5-0.2-0.8-0.5-1c-0.3-0.2-0.7-0.4-1.2-0.4h-2.5V34.1z"/>
</g>
</svg>
